<svg width="250" height="250" viewBox="0 0 250 250" fill="none" xmlns="http://www.w3.org/2000/svg">
<g clip-path="url(#clip0_92_7)">
<path d="M114 37V41.4667L202 41.4667V37L114 37Z" fill="#002149"/>
<path d="M114 121V125.467L202 125.467V121L114 121Z" fill="#002149"/>
<path d="M118.467 37H114V125H118.467V37Z" fill="#002149"/>
<path d="M202.467 37H198V125H202.467V37Z" fill="#002149"/>
<path d="M171 133C171 174.421 137.421 208 96 208C54.5786 208 21 174.421 21 133C21 91.5786 54.5786 58 96 58C137.421 58 171 91.5786 171 133ZM25.8022 133C25.8022 171.769 57.2308 203.198 96 203.198C134.769 203.198 166.198 171.769 166.198 133C166.198 94.2308 134.769 62.8022 96 62.8022C57.2308 62.8022 25.8022 94.2308 25.8022 133Z" fill="#640C0C"/>
<path d="M172.828 174.082L163.414 200H159.566L170.406 171.562H172.887L172.828 174.082ZM180.719 200L171.285 174.082L171.227 171.562H173.707L184.586 200H180.719ZM180.23 189.473V192.559H164.254V189.473H180.23ZM191.773 170V200H188.141V170H191.773ZM201.5 170V200H197.867V170H201.5Z" fill="black"/>
</g>
<defs>
<clipPath id="clip0_92_7">
<rect width="250" height="250" fill="white"/>
</clipPath>
</defs>
</svg>
