<svg width="800" height="800" viewBox="0 0 800 800" fill="none" xmlns="http://www.w3.org/2000/svg">
<path d="M241.942 560.117C237.266 559.043 234.257 554.49 235.259 549.788L262.729 420.913C263.73 416.213 268.352 413.212 273.04 414.218C277.732 415.221 280.725 419.846 279.723 424.547L252.253 553.423C251.381 557.511 247.733 561.447 241.942 560.117Z" fill="black"/>
<path d="M546.75 553.423L519.28 424.547C518.277 419.847 521.271 415.223 525.963 414.218C530.649 413.212 535.271 416.213 536.274 420.913L563.744 549.788C564.746 554.488 561.733 559.022 557.061 560.117C551.966 561.311 547.62 557.511 546.75 553.423Z" fill="black"/>
<path d="M664.973 315.12C640.097 222.765 607.258 165.458 606.876 165.025C605.891 163.9 583.417 138.772 543.565 128.061C539.874 81.1573 482.924 50 399.499 50C316.075 50 259.128 81.1573 255.436 128.061C215.584 138.772 193.11 163.9 192.124 165.025C191.742 165.458 158.903 222.767 134.027 315.12C111.117 400.188 89.503 534.895 116.655 693.535C116.672 693.629 123.887 742.564 123.887 742.564C124.512 746.836 128.172 750 132.481 750H191.751C196.081 750 199.751 746.806 200.354 742.512L207.111 694.512L214.42 679.291L216.456 688.213C217.36 692.169 220.873 694.977 224.925 694.977H574.074C578.126 694.977 581.639 692.171 582.543 688.213L584.579 679.291L591.888 694.512L598.645 742.512C599.25 746.806 602.918 750 607.248 750H666.518C670.827 750 674.487 746.836 675.112 742.564C675.112 742.564 682.327 693.629 682.344 693.535C709.498 534.895 687.883 400.188 664.973 315.12ZM542.091 145.764C567.318 153.288 584.296 167.345 590.826 173.508L571.438 259.088H408.189V224.593L426.073 187.633C444.98 189.089 501.593 191.181 528.607 167.091C535.344 161.081 539.846 153.938 542.091 145.764ZM227.365 276.494H390.811V626.889H220.715C214.779 590.714 190.677 422.74 227.365 276.494ZM224.26 644.294H390.813V652.229H226.07L224.26 644.294ZM399.499 202.641L386.302 175.364C385.95 174.418 385.454 173.513 384.754 172.707C380.688 168.013 376.558 163.001 372.566 157.932H426.429C422.438 163.001 418.307 168.013 414.241 172.707C413.543 173.513 413.046 174.418 412.693 175.364L399.499 202.641ZM359.623 140.527C351.008 128.166 344.926 117.447 344.926 112.786C344.926 103.015 367.368 96.1885 399.499 96.1885C431.631 96.1885 454.072 103.015 454.072 112.786C454.072 117.449 447.991 128.167 439.376 140.527H359.623ZM399.499 67.4053C474.21 67.4053 526.388 94.3557 526.388 132.947C526.388 141.566 523.337 148.479 517.063 154.08C499.987 169.317 462.807 171.661 438.382 170.89C452.253 153.6 471.449 127.092 471.449 112.784C471.449 90.8572 445.897 78.7814 399.499 78.7814C353.102 78.7814 327.55 90.8572 327.55 112.784C327.55 127.092 346.746 153.6 360.615 170.89C336.186 171.658 299.012 169.317 281.936 154.08C275.662 148.479 272.61 141.566 272.61 132.947C272.61 94.3557 324.789 67.4053 399.499 67.4053ZM256.909 145.766C259.156 153.938 263.657 161.082 270.395 167.091C297.408 191.18 354.021 189.088 372.93 187.633L390.813 224.593V259.088H227.565L208.173 173.489C214.663 167.321 231.542 153.308 256.909 145.766ZM184.203 732.596H139.986L138.928 725.384H185.219L184.203 732.596ZM187.667 707.978H136.372L135.315 700.767H188.684L187.667 707.978ZM193.184 683.364H132.575C107.868 531.266 128.629 402.237 150.636 320.282C166.086 262.736 184.248 219.858 195.487 196.149L211.685 267.641C169.117 431.246 202.249 622.734 204.722 636.448C204.759 636.812 208.211 652.074 208.211 652.074L193.184 683.364ZM231.853 677.573L230.041 669.634H390.811V677.573H231.853ZM567.147 677.573H408.189V669.634H568.96L567.147 677.573ZM572.93 652.229H408.187V644.294H574.741L572.93 652.229ZM578.286 626.889H408.187V276.494H571.634C608.324 422.74 584.221 590.714 578.286 626.889ZM659.015 732.596H614.798L613.783 725.384H660.075L659.015 732.596ZM662.629 707.978H611.333L610.318 700.767H663.687L662.629 707.978ZM666.426 683.364H605.816L590.791 652.072C590.791 652.072 594.244 636.808 594.28 636.446C596.753 622.732 629.886 431.244 587.318 267.64L603.519 196.132C614.706 219.721 632.756 262.324 648.196 319.654C670.304 401.737 691.174 530.989 666.426 683.364Z" fill="black"/>
</svg>
