<svg width="1723" height="287" viewBox="0 0 1723 287" fill="none" xmlns="http://www.w3.org/2000/svg">
<path d="M1723 0L1691.05 37.1705C1659.23 74.7396 1594.97 148.483 1531.56 154.163C1467.78 159.444 1403.53 95.6667 1340.11 69.0594C1276.34 42.8507 1212.08 52.816 1148.67 79.7222C1084.89 106.628 1020.64 148.483 957.222 132.837C893.447 116.594 829.194 42.8507 765.778 26.6073C702.003 10.9618 637.749 52.816 574.333 79.7222C510.558 106.628 446.305 116.594 382.889 111.611C319.114 106.628 254.86 84.7049 191.444 100.948C127.669 116.594 63.416 170.406 32.3063 196.615L1.19e-05 223.222V287H31.9472C63.7748 287 128.028 287 191.444 287C255.219 287 319.473 287 382.889 287C446.664 287 510.917 287 574.333 287C638.108 287 702.362 287 765.778 287C829.553 287 893.806 287 957.222 287C1021 287 1085.25 287 1148.67 287C1212.44 287 1276.7 287 1340.11 287C1403.89 287 1468.14 287 1531.56 287C1595.33 287 1659.58 287 1690.69 287H1723V0Z" fill="#DC6A00"/>
</svg>
