<svg width="1723" height="204" viewBox="0 0 1723 204" fill="none" xmlns="http://www.w3.org/2000/svg">
<path d="M1723 0L1691.05 26.4208C1659.23 53.125 1594.97 105.542 1531.56 109.579C1467.78 113.333 1403.53 68 1340.11 49.0875C1276.34 30.4583 1212.08 37.5417 1148.67 56.6667C1084.89 75.7917 1020.64 105.542 957.222 94.4208C893.447 82.875 829.194 30.4583 765.778 18.9125C702.003 7.79167 637.749 37.5417 574.333 56.6667C510.558 75.7917 446.305 82.875 382.889 79.3333C319.114 75.7917 254.86 60.2083 191.444 71.7542C127.669 82.875 63.416 121.125 32.3063 139.754L1.19e-05 158.667V204H31.9472C63.7748 204 128.028 204 191.444 204C255.219 204 319.473 204 382.889 204C446.664 204 510.917 204 574.333 204C638.108 204 702.362 204 765.778 204C829.553 204 893.806 204 957.222 204C1021 204 1085.25 204 1148.67 204C1212.44 204 1276.7 204 1340.11 204C1403.89 204 1468.14 204 1531.56 204C1595.33 204 1659.58 204 1690.69 204H1723V0Z" fill="#C65300"/>
</svg>
