<svg width="106" height="111" viewBox="0 0 106 111" fill="none" xmlns="http://www.w3.org/2000/svg">
<path d="M100 50C100 77.6142 77.6142 100 50 100C22.3858 100 0 77.6142 0 50C0 22.3858 22.3858 0 50 0C77.6142 0 100 22.3858 100 50ZM8.1926 50C8.1926 73.0896 26.9104 91.8074 50 91.8074C73.0896 91.8074 91.8074 73.0896 91.8074 50C91.8074 26.9104 73.0896 8.1926 50 8.1926C26.9104 8.1926 8.1926 26.9104 8.1926 50Z" fill="black"/>
<rect x="77" y="89.071" width="10" height="30" transform="rotate(-45 77 89.071)" fill="black"/>
</svg>
