<svg width="508" height="508" viewBox="0 0 508 508" fill="none" xmlns="http://www.w3.org/2000/svg">
<g clip-path="url(#clip0_70_12)">
<path d="M109.2 386.4H366.8V128.8L109.2 386.4ZM324.8 344H211.2L324.4 230.8L324.8 344Z" fill="#EA69FF"/>
<path d="M366.8 166H347.2V172.8H366.8V166Z" fill="#E750FF"/>
<path d="M366.8 188H347.2V194.8H366.8V188Z" fill="#E750FF"/>
<path d="M366.8 210H347.2V216.8H366.8V210Z" fill="#E750FF"/>
<path d="M366.8 232H347.2V238.8H366.8V232Z" fill="#E750FF"/>
<path d="M366.8 254H347.2V260.8H366.8V254Z" fill="#E750FF"/>
<path d="M366.8 276H347.2V282.8H366.8V276Z" fill="#E750FF"/>
<path d="M366.8 298H347.2V304.8H366.8V298Z" fill="#E750FF"/>
<path d="M366.8 320H347.2V326.8H366.8V320Z" fill="#E750FF"/>
<path d="M366.8 342H347.2V348.8H366.8V342Z" fill="#E750FF"/>
<path d="M329.2 366.8H322.4V386.4H329.2V366.8Z" fill="#E750FF"/>
<path d="M307.2 366.8H300.4V386.4H307.2V366.8Z" fill="#E750FF"/>
<path d="M285.2 366.8H278.4V386.4H285.2V366.8Z" fill="#E750FF"/>
<path d="M263.2 366.8H256.4V386.4H263.2V366.8Z" fill="#E750FF"/>
<path d="M241.2 366.8H234.4V386.4H241.2V366.8Z" fill="#E750FF"/>
<path d="M219.2 366.8H212.4V386.4H219.2V366.8Z" fill="#E750FF"/>
<path d="M197.2 366.8H190.4V386.4H197.2V366.8Z" fill="#E750FF"/>
<path d="M175.2 366.8H168.4V386.4H175.2V366.8Z" fill="#E750FF"/>
<path d="M153.2 366.8H146.4V386.4H153.2V366.8Z" fill="#E750FF"/>
<path d="M291.695 113.666L90.0325 315.329L120.014 345.31L321.676 143.647L291.695 113.666Z" fill="#E750FF"/>
<path d="M129.6 276.4C47.2 194.4 170.4 71.2 252.4 153.2C262.4 143.2 272.4 133.2 282.4 123.2C160.4 1.59998 -22.4 184.4 99.6 306.4C109.6 296.4 119.6 286.4 129.6 276.4Z" fill="#EA69FF"/>
<path d="M293.082 145.13L286.577 151.635L300.436 165.494L306.942 158.989L293.082 145.13Z" fill="#D040E8"/>
<path d="M272.442 166.108L265.937 172.613L279.796 186.472L286.301 179.967L272.442 166.108Z" fill="#D040E8"/>
<path d="M251.802 186.516L245.297 193.022L259.156 206.881L265.662 200.375L251.802 186.516Z" fill="#D040E8"/>
<path d="M231.162 206.932L224.657 213.438L238.516 227.297L245.021 220.791L231.162 206.932Z" fill="#D040E8"/>
<path d="M210.523 227.931L204.017 234.436L217.876 248.295L224.382 241.79L210.523 227.931Z" fill="#D040E8"/>
<path d="M189.882 248.315L183.377 254.82L197.236 268.679L203.741 262.174L189.882 248.315Z" fill="#D040E8"/>
<path d="M169.242 269.304L162.737 275.81L176.596 289.669L183.101 283.164L169.242 269.304Z" fill="#D040E8"/>
<path d="M148.602 289.729L142.097 296.234L155.956 310.094L162.461 303.588L148.602 289.729Z" fill="#D040E8"/>
<path d="M127.962 310.114L121.457 316.619L135.316 330.478L141.821 323.973L127.962 310.114Z" fill="#D040E8"/>
<path d="M404.8 161.2H380V364.8H404.8V161.2Z" fill="#324A5E"/>
<path d="M404.8 161.2L392.4 128.8L380 161.2H404.8Z" fill="#FFD05B"/>
<path d="M397.2 141.2L392.4 128.8L387.6 141.2H397.2Z" fill="#324A5E"/>
<path d="M380 364.8V383.2C380 385.2 381.6 386.4 383.2 386.4H401.6C403.6 386.4 404.8 384.8 404.8 383.2V364.8H380Z" fill="#FF7058"/>
</g>
<defs>
<clipPath id="clip0_70_12">
<rect width="508" height="508" fill="white"/>
</clipPath>
</defs>
</svg>
