<svg width="1211" height="786" viewBox="0 0 1211 786" fill="none" xmlns="http://www.w3.org/2000/svg">
<path fill-rule="evenodd" clip-rule="evenodd" d="M320.07 330.705L453.967 38.3496L499.967 59.4615L347.919 391.574L518.615 764.432L472.532 785.544L320.07 452.445L214.186 683.765L168.102 662.653L292.224 391.574L168.184 120.577L214.268 99.4672L320.07 330.705ZM935.995 246.177L1024.47 52.8895L1070.55 74.0013L963.843 307.048L1151.79 717.856L1105.71 738.966L935.995 367.917L784.684 698.305L738.6 677.193L908.066 307.048L801.442 74.0013L847.524 52.8895L935.995 246.177Z" fill="#111532"/>
<path d="M605.46 203.414C939.846 203.414 1210.92 157.879 1210.92 101.707C1210.92 45.5358 939.846 0 605.46 0C271.074 0 0 45.5358 0 101.707C0 157.879 271.074 203.414 605.46 203.414Z" fill="#007378"/>
</svg>
