<svg width="686" height="408" viewBox="0 0 686 408" fill="none" xmlns="http://www.w3.org/2000/svg">
<path d="M309.831 293.417C319.661 292.809 320.476 277.12 309.831 277.078C309.509 277.077 309.507 276.464 309.108 276.497L251.859 281.376C251.298 281.424 252.879 281.491 252.879 281.633V288.862C252.879 289.004 251.3 289.071 251.859 289.118L309.108 293.997C309.507 294.031 309.831 293.739 309.831 293.417Z" fill="#CCCCCC"/>
<path d="M227.419 284.853L262.89 276.614C263.174 276.548 263.446 276.728 263.497 277.016L264.943 285.278C264.993 285.566 264.803 285.853 264.519 285.919L229.047 294.159C228.763 294.225 228.491 294.045 228.441 293.757L226.994 285.495C226.944 285.207 227.134 284.92 227.419 284.853Z" fill="#999999" stroke="#999999" stroke-width="1.60121" stroke-linecap="square" stroke-linejoin="bevel" stroke-dasharray="6.4 6.4"/>
<path d="M531.566 372.941L541.945 259.418" stroke="#CCCCCC"/>
<path d="M419.414 253.09L532.632 264.115" stroke="#CCCCCC"/>
<path d="M540.215 140.595L528.258 254.954" stroke="#CCCCCC"/>
<path d="M650.619 260.808L541.773 252.233" stroke="#CCCCCC"/>
<path d="M488.498 363.422L527.427 256.279" stroke="#CCCCCC"/>
<path d="M640.998 302.707L533.855 264.493" stroke="#CCCCCC"/>
<path d="M579.569 149.493L541.712 258.065" stroke="#CCCCCC"/>
<path d="M428.498 211.279L530.641 249.851" stroke="#CCCCCC"/>
<path d="M507.664 369.802L527.505 257.546" stroke="#CCCCCC"/>
<path d="M647.388 283.663L535.256 264.526" stroke="#CCCCCC"/>
<path d="M560.423 143.36L541.885 256.838" stroke="#CCCCCC"/>
<path d="M422.291 230.307L529.56 250.659" stroke="#CCCCCC"/>
<path d="M551.27 371.849L542.295 258.207" stroke="#CCCCCC"/>
<path d="M420.459 272.699L533.91 264.412" stroke="#CCCCCC"/>
<path d="M520.488 141.389L528.049 256.123" stroke="#CCCCCC"/>
<path d="M649.637 241.192L540.909 251.155" stroke="#CCCCCC"/>
<path d="M559.67 370.481L528.576 260.808" stroke="#CCCCCC"/>
<path d="M647.85 232.037L538.595 263.71" stroke="#CCCCCC"/>
<path d="M508.409 143.695L541.207 253.9" stroke="#CCCCCC"/>
<path d="M422.014 282.172L527.422 253.713" stroke="#CCCCCC"/>
<path d="M578.947 364.445L529.38 261.79" stroke="#CCCCCC"/>
<path d="M641.894 212.853L539.75 262.918" stroke="#CCCCCC"/>
<path d="M489.292 149.919L540.629 252.804" stroke="#CCCCCC"/>
<path d="M428.109 301.235L527.02 255" stroke="#CCCCCC"/>
<path d="M600.17 353.01L542.188 254.861" stroke="#CCCCCC"/>
<path d="M439.101 321.397L537.381 264.118" stroke="#CCCCCC"/>
<path d="M471.285 159.495L528.476 259.245" stroke="#CCCCCC"/>
<path d="M631.146 192.424L537.846 249.134" stroke="#CCCCCC"/>
<path d="M615.513 340.601L541.763 253.676" stroke="#CCCCCC"/>
<path d="M451.418 336.692L538.592 263.612" stroke="#CCCCCC"/>
<path d="M455.748 171.679L528.989 260.316" stroke="#CCCCCC"/>
<path d="M618.876 177.089L536.515 248.765" stroke="#CCCCCC"/>
<path d="M534.039 385.369C604.333 385.369 661.318 328.384 661.318 258.09C661.318 187.795 604.333 130.811 534.039 130.811C463.745 130.811 406.76 187.795 406.76 258.09C406.76 328.384 463.745 385.369 534.039 385.369Z" stroke="black" stroke-width="6" stroke-linecap="round" stroke-linejoin="bevel"/>
<path d="M534.039 377.119C599.777 377.119 653.069 323.828 653.069 258.09C653.069 192.352 599.777 139.061 534.039 139.061C468.301 139.061 415.01 192.352 415.01 258.09C415.01 323.828 468.301 377.119 534.039 377.119Z" stroke="#E6E6E6" stroke-width="8.33841" stroke-linecap="round" stroke-linejoin="bevel"/>
<path d="M534.04 382.078C602.516 382.078 658.027 326.567 658.027 258.09C658.027 189.614 602.516 134.103 534.04 134.103C465.563 134.103 410.052 189.614 410.052 258.09C410.052 326.567 465.563 382.078 534.04 382.078Z" stroke="#FFCC00" stroke-width="3" stroke-linecap="round" stroke-linejoin="bevel"/>
<path d="M534.039 267.046C538.986 267.046 542.996 263.037 542.996 258.09C542.996 253.144 538.986 249.134 534.039 249.134C529.093 249.134 525.083 253.144 525.083 258.09C525.083 263.037 529.093 267.046 534.039 267.046Z" fill="#B3B3B3"/>
<path d="M468.821 352.553L527.598 254.878" stroke="#CCCCCC"/>
<path d="M630.141 322.249L532.329 264.174" stroke="#CCCCCC"/>
<path d="M599.274 160.091L541.274 259.374" stroke="#CCCCCC"/>
<path d="M439.15 191.72L531.987 249.186" stroke="#CCCCCC"/>
<path d="M147.707 372.941L158.087 259.418" stroke="#CCCCCC"/>
<path d="M35.5552 253.09L148.773 264.115" stroke="#CCCCCC"/>
<path d="M156.357 140.595L144.4 254.954" stroke="#CCCCCC"/>
<path d="M266.761 260.808L157.915 252.233" stroke="#CCCCCC"/>
<path d="M104.64 363.423L143.568 256.28" stroke="#CCCCCC"/>
<path d="M257.14 302.708L149.997 264.494" stroke="#CCCCCC"/>
<path d="M195.711 149.494L157.854 258.066" stroke="#CCCCCC"/>
<path d="M44.6396 211.28L146.783 249.852" stroke="#CCCCCC"/>
<path d="M123.806 369.802L143.646 257.546" stroke="#CCCCCC"/>
<path d="M263.53 283.663L151.397 264.526" stroke="#CCCCCC"/>
<path d="M176.565 143.36L158.026 256.838" stroke="#CCCCCC"/>
<path d="M38.4326 230.307L145.702 250.659" stroke="#CCCCCC"/>
<path d="M167.412 371.849L158.437 258.207" stroke="#CCCCCC"/>
<path d="M36.6002 272.699L150.052 264.412" stroke="#CCCCCC"/>
<path d="M136.629 141.389L144.191 256.123" stroke="#CCCCCC"/>
<path d="M265.778 241.192L157.051 251.155" stroke="#CCCCCC"/>
<path d="M175.811 370.482L144.718 260.809" stroke="#CCCCCC"/>
<path d="M263.992 232.038L154.736 263.711" stroke="#CCCCCC"/>
<path d="M124.551 143.696L157.349 253.901" stroke="#CCCCCC"/>
<path d="M38.1553 282.173L143.564 253.714" stroke="#CCCCCC"/>
<path d="M195.089 364.445L145.522 261.79" stroke="#CCCCCC"/>
<path d="M258.036 212.853L155.892 262.918" stroke="#CCCCCC"/>
<path d="M105.433 149.919L156.771 252.804" stroke="#CCCCCC"/>
<path d="M44.251 301.235L143.161 255" stroke="#CCCCCC"/>
<path d="M216.311 353.011L158.33 254.862" stroke="#CCCCCC"/>
<path d="M55.2422 321.398L153.522 264.119" stroke="#CCCCCC"/>
<path d="M87.4261 159.496L144.617 259.246" stroke="#CCCCCC"/>
<path d="M247.287 192.425L153.987 249.135" stroke="#CCCCCC"/>
<path d="M231.655 340.601L157.905 253.676" stroke="#CCCCCC"/>
<path d="M67.5597 336.692L154.733 263.612" stroke="#CCCCCC"/>
<path d="M71.8891 171.679L145.131 260.316" stroke="#CCCCCC"/>
<path d="M235.018 177.089L152.656 248.765" stroke="#CCCCCC"/>
<path d="M150.181 385.37C220.475 385.37 277.46 328.385 277.46 258.091C277.46 187.796 220.475 130.812 150.181 130.812C79.8862 130.812 22.9014 187.796 22.9014 258.091C22.9014 328.385 79.8862 385.37 150.181 385.37Z" stroke="black" stroke-width="6" stroke-linecap="round" stroke-linejoin="bevel"/>
<path d="M150.181 377.12C215.919 377.12 269.21 323.829 269.21 258.091C269.21 192.353 215.919 139.062 150.181 139.062C84.4427 139.062 31.1514 192.353 31.1514 258.091C31.1514 323.829 84.4427 377.12 150.181 377.12Z" stroke="#E6E6E6" stroke-width="8.33841" stroke-linecap="round" stroke-linejoin="bevel"/>
<path d="M150.181 382.078C218.658 382.078 274.169 326.567 274.169 258.09C274.169 189.614 218.658 134.103 150.181 134.103C81.7046 134.103 26.1934 189.614 26.1934 258.09C26.1934 326.567 81.7046 382.078 150.181 382.078Z" stroke="#FFCC00" stroke-width="3" stroke-linecap="round" stroke-linejoin="bevel"/>
<path d="M150.181 267.047C155.127 267.047 159.137 263.038 159.137 258.091C159.137 253.145 155.127 249.135 150.181 249.135C145.235 249.135 141.225 253.145 141.225 258.091C141.225 263.038 145.235 267.047 150.181 267.047Z" fill="#B3B3B3"/>
<path d="M84.9628 352.553L143.739 254.878" stroke="#CCCCCC"/>
<path d="M246.283 322.249L148.471 264.174" stroke="#CCCCCC"/>
<path d="M215.415 160.091L157.416 259.374" stroke="#CCCCCC"/>
<path d="M55.292 191.72L148.128 249.186" stroke="#CCCCCC"/>
<path d="M237.536 37.688L236.526 32.1322C236.526 32.1322 240.756 29.7331 241.261 30.4907C241.767 31.2483 245.681 36.6779 245.681 36.6779L237.536 37.688Z" fill="#666666"/>
<path d="M479.206 120.947C475.84 120.981 473.47 124.266 474.497 127.472L476.261 133.275C476.269 133.297 507.173 216.876 509.906 224.863C512.611 232.772 523.294 250.712 532.566 259.985C535.341 262.76 539.502 258.599 536.728 255.823C528.466 247.562 519.494 229.194 517.164 222.383C514.861 215.651 485.835 130.381 485.835 130.381V130.373L484.064 124.556C483.439 122.399 481.452 120.922 479.206 120.947Z" fill="#D40000"/>
<path d="M463.944 62.1728L460.819 50.3871C460.819 50.3871 460.283 47.9764 464.658 47.7085C469.033 47.4405 481.444 47.3513 481.89 47.5301C482.337 47.7085 485.462 50.1194 488.051 49.9408C490.64 49.7624 491.533 39.2265 490.104 38.8694C488.676 38.5122 484.658 38.8694 483.676 39.4051C482.694 39.9408 455.372 38.8694 454.212 38.9586C453.051 39.0478 449.301 39.3158 450.194 43.6908C451.087 48.0658 456.176 64.4943 456.176 64.4943L463.944 62.1728Z" fill="#E6E6E6"/>
<path d="M244.658 66.1899C244.569 65.4756 237.962 42.2613 237.962 42.2613C237.962 42.2613 237.069 36.2791 237.605 36.4577C238.14 36.6365 244.569 34.8506 244.569 34.8506L247.337 39.4041L254.748 65.0292L244.658 66.1899Z" fill="#E6E6E6"/>
<path d="M249.346 64.6246C247.414 65.1446 242.954 64.4465 243.923 67.1993L302.004 285.895C304.056 293.632 315.66 290.554 313.608 282.817L255.52 64.1137C254.865 61.4987 251.34 64.0872 249.346 64.6246Z" fill="#D40000"/>
<path d="M349.979 284.102C349.979 307.115 331.324 325.771 308.311 325.771C235.704 310.528 210.173 297.554 142.623 274.045C136.517 271.92 134.021 270.063 133.486 256.935C133.297 252.307 136.427 243.152 145.881 242.187C187.798 237.909 289.93 242.433 308.311 242.433C331.324 242.433 349.979 261.089 349.979 284.102Z" stroke="#4D4D4D" stroke-width="2" stroke-linecap="round" stroke-linejoin="bevel" stroke-dasharray="2 2"/>
<path d="M242.65 36.6143L251.363 64.0146" stroke="#F9F9F9" stroke-linecap="round"/>
<path d="M150.14 276.094C159.861 276.094 167.742 268.214 167.742 258.492C167.742 248.771 159.861 240.891 150.14 240.891C140.419 240.891 132.538 248.771 132.538 258.492C132.538 268.214 140.419 276.094 150.14 276.094Z" stroke="#808080" stroke-width="2" stroke-linecap="square" stroke-linejoin="bevel" stroke-dasharray="2 8"/>
<path d="M150.139 275.049C159.283 275.049 166.696 267.636 166.696 258.492C166.696 249.348 159.283 241.936 150.139 241.936C140.996 241.936 133.583 249.348 133.583 258.492C133.583 267.636 140.996 275.049 150.139 275.049Z" fill="#808080" stroke="#808080" stroke-width="1.02438" stroke-linecap="round" stroke-linejoin="bevel"/>
<path d="M155.272 256.07L307.806 284.355" stroke="#D40000" stroke-width="8" stroke-linecap="round"/>
<path d="M151.737 255.566L254.773 81.8193Z" fill="#1A1A1A"/>
<path d="M151.737 255.566L254.773 81.8193" stroke="#D40000" stroke-width="8" stroke-linecap="round"/>
<path d="M470.119 108.139L307.806 284.354Z" fill="#1A1A1A"/>
<path d="M470.119 108.139L307.806 284.354" stroke="#D40000" stroke-width="12" stroke-linecap="round"/>
<path d="M459.834 84.3441L255.783 83.334Z" fill="#D40000"/>
<path d="M459.834 84.3441L255.783 83.334" stroke="#D40000" stroke-width="12" stroke-linecap="round"/>
<path d="M463.472 72.8047C457.359 74.486 456.95 73.5067 458.094 77.3791L469.713 118.791C471.754 126.703 483.636 123.369 481.266 115.551L469.654 74.1384C468.961 71.5322 469.702 71.091 463.472 72.8047Z" fill="#D40000"/>
<path d="M468.243 68.1459L455.291 71.5625L455.36 71.8238L468.312 68.4071L468.243 68.1459Z" fill="#B3B3B3" stroke="#CCCCCC" stroke-width="6.99768" stroke-linecap="round" stroke-linejoin="bevel"/>
<path d="M189.658 5.38667C190.511 9.8015 191.985 15.4743 195.392 17.5971C209.784 26.5651 216.157 31.0139 228.855 32.7974C244.748 35.0295 255.105 22.7974 266.891 22.4402C278.676 22.0831 295.908 24.1367 296.712 24.9402C297.516 25.7438 297.248 17.7974 294.926 15.2974C292.757 10.973 269.026 8.24971 240.551 7.52952C212.117 6.81033 195.73 1.01165 194.033 0.297373C192.337 -0.416916 188.572 -0.239175 189.658 5.38667Z" fill="#241C1C"/>
<path d="M150.181 264.395C153.663 264.395 156.485 261.573 156.485 258.091C156.485 254.609 153.663 251.786 150.181 251.786C146.699 251.786 143.876 254.609 143.876 258.091C143.876 261.573 146.699 264.395 150.181 264.395Z" fill="#4D4D4D"/>
<path d="M483.6 121.361L470.647 124.777L470.716 125.039L483.669 121.622L483.6 121.361Z" fill="#B3B3B3" stroke="#CCCCCC" stroke-width="6.99768" stroke-linecap="round" stroke-linejoin="bevel"/>
<path d="M458.498 63.1546L452.92 43.0342" stroke="#F9F9F9" stroke-linecap="round"/>
<path d="M452.694 42.5293L482.694 42.5739C482.169 43.7736 482.257 44.8856 482.561 45.9668L460.016 46.9043C460.016 46.9043 460.195 43.7793 453.632 44.0918L452.694 42.5293Z" fill="#F9F9F9"/>
<path d="M466.126 61.2267L453.684 64.5088L454.641 68.1394L467.083 64.8573L466.126 61.2267Z" fill="#B3B3B3"/>
<path d="M342.461 304.346L312.572 292.417L299.67 320.853L301.457 289.459L270.748 285.258L300.836 277.974L295.664 246.752L311.567 273.835L339.985 258.549L318.82 282.761L342.461 304.346Z" fill="#808080"/>
<path d="M309.068 324.993C331.791 324.993 350.212 306.572 350.212 283.85C350.212 261.127 331.791 242.706 309.068 242.706C286.345 242.706 267.925 261.127 267.925 283.85C267.925 306.572 286.345 324.993 309.068 324.993Z" fill="#808080" stroke="#808080" stroke-width="2.54562" stroke-linecap="round" stroke-linejoin="bevel" stroke-dasharray="2.55 10.18"/>
<path d="M309.069 323.123C330.758 323.123 348.341 305.54 348.341 283.85C348.341 262.16 330.758 244.577 309.069 244.577C287.379 244.577 269.796 262.16 269.796 283.85C269.796 305.54 287.379 323.123 309.069 323.123Z" fill="#808080" stroke="#808080" stroke-width="2.42988" stroke-linecap="round" stroke-linejoin="bevel"/>
<path d="M309.068 316.193C326.931 316.193 341.412 301.712 341.412 283.849C341.412 265.986 326.931 251.505 309.068 251.505C291.205 251.505 276.724 265.986 276.724 283.849C276.724 301.712 291.205 316.193 309.068 316.193Z" fill="#666666" stroke="#808080" stroke-width="2.0012" stroke-linecap="round" stroke-linejoin="bevel"/>
<path d="M489.058 39.5893C483.557 40.176 482.94 47.9402 488.28 49.3879C491.257 50.2416 497.795 51.6872 505.425 53.9237C513.055 56.1603 518.123 57.0417 523.396 60.2339C527.914 62.9694 530.997 68.6648 531.433 74.0294C531.869 79.394 530.179 83.5961 525.817 85.5772C512.691 91.5388 484.858 99.3307 484.858 99.3307C482.007 100.028 485.59 110.094 486.556 109.183C486.556 109.183 513.82 102.005 529.947 94.6799C538.57 90.7632 542.084 81.6033 541.403 73.2184C540.722 64.8335 536.368 56.3924 528.582 51.6787C521.761 47.5493 516.228 46.6717 508.239 44.3299C500.25 41.9882 492.971 40.3319 491.033 39.7764C490.394 39.5825 489.722 39.519 489.058 39.5893Z" fill="#241C1C"/>
<path d="M309.395 293.596C299.565 292.988 298.75 277.299 309.395 277.257C309.716 277.255 309.719 276.642 310.118 276.676L367.367 281.555C367.928 281.603 366.347 281.669 366.347 281.812V289.04C366.347 289.183 367.926 289.249 367.367 289.297L310.118 294.176C309.719 294.21 309.395 293.917 309.395 293.596Z" fill="#CCCCCC"/>
<path d="M390.621 279.141L354.38 282.701C354.089 282.73 353.89 282.987 353.934 283.276L355.211 291.566C355.256 291.855 355.528 292.066 355.819 292.038L392.06 288.477C392.351 288.449 392.551 288.191 392.506 287.903L391.229 279.612C391.184 279.323 390.912 279.112 390.621 279.141Z" fill="#999999" stroke="#999999" stroke-width="1.60121" stroke-linecap="square" stroke-linejoin="bevel" stroke-dasharray="6.4 6.4"/>
<path d="M373.213 290.542C375.793 290.542 377.885 288.394 377.885 285.744C377.885 283.094 375.793 280.945 373.213 280.945C370.633 280.945 368.541 283.094 368.541 285.744C368.541 288.394 370.633 290.542 373.213 290.542Z" fill="#666666"/>
<path d="M309.826 291.552C313.085 291.552 315.728 288.838 315.728 285.491C315.728 282.143 313.085 279.43 309.826 279.43C306.567 279.43 303.925 282.143 303.925 285.491C303.925 288.838 306.567 291.552 309.826 291.552Z" fill="#999999"/>
</svg>
