<svg width="923" height="731" viewBox="0 0 923 731" fill="none" xmlns="http://www.w3.org/2000/svg">
<path d="M432.83 730.496L922.068 638.101L340.436 241.268L432.833 730.496L432.83 730.496ZM504.58 625.331L468.561 434.606L695.305 589.311L504.58 625.331Z" fill="#3300CC" fill-opacity="0.40909"/>
<path d="M338.001 239.794L340.353 252.249L907.183 638.983L919.634 636.631L338 239.789L338.001 239.794Z" fill="#F6F2FF" fill-opacity="0.40909"/>
<path d="M461.23 429.959L499.828 634.334L703.516 595.866L696.144 590.095L504.055 626.372L467.646 433.587L461.23 429.959Z" fill="#F6F3FF" fill-opacity="0.40909"/>
<path d="M344.27 256.787L433.046 726.86L434 726.77L434.43 728.222L904.504 639.445L894.034 632.285L440.474 717.943L354.73 263.929L344.27 256.789L344.27 256.787Z" fill="#230074" fill-opacity="0.40909"/>
<path d="M459.37 416.764L461.723 429.224L704.59 594.921L702.342 582.541L459.37 416.764Z" fill="#230074" fill-opacity="0.40784"/>
<path d="M246.053 535.619L338.426 46.3833L1.31738 489.411L246.053 535.619ZM197.396 456.671L119.109 441.89L229.97 284.149L197.396 456.671Z" fill="#3300CC" fill-opacity="0.40909"/>
<path d="M0 491.319L6.22989 492.496L334.748 60.7402L337.101 48.2803L0 491.319Z" fill="#F6F2FF" fill-opacity="0.40909"/>
<path d="M115.614 446.817L200.808 462.098L234.404 284.162L230.531 285.65L198.02 457.837L118.338 442.792L115.614 446.817Z" fill="#F6F3FF" fill-opacity="0.40909"/>
<path d="M9.33301 490.019L244.478 534.416L244.694 533.49L245.469 533.484L334.223 63.4094L328.141 71.3692L241.542 530.025L12.0764 486.7L9.33301 490.019Z" fill="#230074" fill-opacity="0.40909"/>
<path d="M113.152 441.315L115.56 446.4L230.044 283.593L225.919 283.069L113.152 441.315Z" fill="#230074" fill-opacity="0.40784"/>
</svg>
